<mxfile host="app.diagrams.net" agent="Mozilla/5.0 (Macintosh; Intel Mac OS X 10_15_7) AppleWebKit/605.1.15 (KHTML, like Gecko) Version/18.6 Safari/605.1.15" version="28.2.5">
  <diagram name="Page-1" id="85GoiwzplOYLq53OgErL">
    <mxGraphModel dx="1113" dy="767" grid="1" gridSize="10" guides="1" tooltips="1" connect="1" arrows="1" fold="1" page="1" pageScale="1" pageWidth="827" pageHeight="1169" background="none" math="0" shadow="0">
      <root>
        <mxCell id="0" />
        <mxCell id="1" parent="0" />
        <mxCell id="A8C6d5W6ICT088-M1Bfj-1" value="" style="rounded=0;whiteSpace=wrap;html=1;fillColor=none;" vertex="1" parent="1">
          <mxGeometry x="160" y="40" width="2660" height="80" as="geometry" />
        </mxCell>
        <mxCell id="A8C6d5W6ICT088-M1Bfj-6" value="" style="rounded=0;whiteSpace=wrap;html=1;fillColor=none;" vertex="1" parent="1">
          <mxGeometry x="160" y="160" width="2660" height="80" as="geometry" />
        </mxCell>
        <mxCell id="A8C6d5W6ICT088-M1Bfj-7" value="" style="rounded=0;whiteSpace=wrap;html=1;fillColor=none;" vertex="1" parent="1">
          <mxGeometry x="160" y="280" width="2660" height="80" as="geometry" />
        </mxCell>
        <mxCell id="A8C6d5W6ICT088-M1Bfj-8" value="Business/Application" style="text;html=1;align=center;verticalAlign=middle;whiteSpace=wrap;rounded=0;" vertex="1" parent="1">
          <mxGeometry x="50" y="185" width="60" height="30" as="geometry" />
        </mxCell>
        <mxCell id="A8C6d5W6ICT088-M1Bfj-13" value="" style="rounded=0;whiteSpace=wrap;html=1;fillColor=none;" vertex="1" parent="1">
          <mxGeometry x="200" y="20" width="600" height="370" as="geometry" />
        </mxCell>
        <mxCell id="A8C6d5W6ICT088-M1Bfj-9" value="Presentation" style="text;html=1;align=center;verticalAlign=middle;whiteSpace=wrap;rounded=0;" vertex="1" parent="1">
          <mxGeometry x="50" y="65" width="60" height="30" as="geometry" />
        </mxCell>
        <mxCell id="A8C6d5W6ICT088-M1Bfj-10" value="Persistance/infrastructure" style="text;html=1;align=center;verticalAlign=middle;whiteSpace=wrap;rounded=0;" vertex="1" parent="1">
          <mxGeometry x="50" y="305" width="60" height="30" as="geometry" />
        </mxCell>
        <mxCell id="A8C6d5W6ICT088-M1Bfj-14" value="Creating and Validating Subjects" style="text;html=1;align=center;verticalAlign=middle;whiteSpace=wrap;rounded=0;" vertex="1" parent="1">
          <mxGeometry x="465" y="410" width="60" height="30" as="geometry" />
        </mxCell>
        <mxCell id="A8C6d5W6ICT088-M1Bfj-15" value="" style="rounded=0;whiteSpace=wrap;html=1;fillColor=none;" vertex="1" parent="1">
          <mxGeometry x="840" y="20" width="600" height="370" as="geometry" />
        </mxCell>
        <mxCell id="A8C6d5W6ICT088-M1Bfj-16" value="Scheduling classes" style="text;html=1;align=center;verticalAlign=middle;whiteSpace=wrap;rounded=0;" vertex="1" parent="1">
          <mxGeometry x="1090" y="410" width="60" height="30" as="geometry" />
        </mxCell>
        <mxCell id="A8C6d5W6ICT088-M1Bfj-17" value="" style="rounded=0;whiteSpace=wrap;html=1;fillColor=none;" vertex="1" parent="1">
          <mxGeometry x="1480" y="20" width="600" height="370" as="geometry" />
        </mxCell>
        <mxCell id="A8C6d5W6ICT088-M1Bfj-18" value="User Validation" style="text;html=1;align=center;verticalAlign=middle;whiteSpace=wrap;rounded=0;" vertex="1" parent="1">
          <mxGeometry x="2450" y="420" width="60" height="30" as="geometry" />
        </mxCell>
        <mxCell id="A8C6d5W6ICT088-M1Bfj-20" value="" style="rounded=0;whiteSpace=wrap;html=1;fillColor=none;" vertex="1" parent="1">
          <mxGeometry x="2120" y="20" width="600" height="370" as="geometry" />
        </mxCell>
        <mxCell id="A8C6d5W6ICT088-M1Bfj-21" value="Access to Schedules" style="text;html=1;align=center;verticalAlign=middle;whiteSpace=wrap;rounded=0;" vertex="1" parent="1">
          <mxGeometry x="1760" y="410" width="60" height="30" as="geometry" />
        </mxCell>
        <mxCell id="A8C6d5W6ICT088-M1Bfj-22" value="CRUD to subjects" style="ellipse;whiteSpace=wrap;html=1;" vertex="1" parent="1">
          <mxGeometry x="210" y="290" width="100" height="60" as="geometry" />
        </mxCell>
        <mxCell id="A8C6d5W6ICT088-M1Bfj-24" value="Load subjects" style="ellipse;whiteSpace=wrap;html=1;" vertex="1" parent="1">
          <mxGeometry x="850" y="290" width="100" height="60" as="geometry" />
        </mxCell>
        <mxCell id="A8C6d5W6ICT088-M1Bfj-25" value="Load a schedule" style="ellipse;whiteSpace=wrap;html=1;" vertex="1" parent="1">
          <mxGeometry x="1485" y="290" width="105" height="60" as="geometry" />
        </mxCell>
        <mxCell id="A8C6d5W6ICT088-M1Bfj-26" value="Data access and management" style="ellipse;whiteSpace=wrap;html=1;" vertex="1" parent="1">
          <mxGeometry x="2140" y="290" width="130" height="60" as="geometry" />
        </mxCell>
        <mxCell id="A8C6d5W6ICT088-M1Bfj-27" value="User authentication" style="ellipse;whiteSpace=wrap;html=1;" vertex="1" parent="1">
          <mxGeometry x="2130" y="170" width="100" height="60" as="geometry" />
        </mxCell>
        <mxCell id="A8C6d5W6ICT088-M1Bfj-28" value="Teacher/Student authorisation" style="ellipse;whiteSpace=wrap;html=1;" vertex="1" parent="1">
          <mxGeometry x="1500" y="170" width="100" height="60" as="geometry" />
        </mxCell>
        <mxCell id="A8C6d5W6ICT088-M1Bfj-29" value="User authoristion" style="ellipse;whiteSpace=wrap;html=1;" vertex="1" parent="1">
          <mxGeometry x="850" y="170" width="100" height="60" as="geometry" />
        </mxCell>
        <mxCell id="A8C6d5W6ICT088-M1Bfj-30" value="Validate management role" style="ellipse;whiteSpace=wrap;html=1;" vertex="1" parent="1">
          <mxGeometry x="210" y="170" width="100" height="60" as="geometry" />
        </mxCell>
        <mxCell id="A8C6d5W6ICT088-M1Bfj-32" value="Validate teacher role" style="ellipse;whiteSpace=wrap;html=1;" vertex="1" parent="1">
          <mxGeometry x="320" y="170" width="100" height="60" as="geometry" />
        </mxCell>
        <mxCell id="A8C6d5W6ICT088-M1Bfj-33" value="Link user to data" style="ellipse;whiteSpace=wrap;html=1;" vertex="1" parent="1">
          <mxGeometry x="960" y="170" width="100" height="60" as="geometry" />
        </mxCell>
        <mxCell id="A8C6d5W6ICT088-M1Bfj-34" value="Link user to data" style="ellipse;whiteSpace=wrap;html=1;" vertex="1" parent="1">
          <mxGeometry x="1610" y="170" width="100" height="60" as="geometry" />
        </mxCell>
        <mxCell id="A8C6d5W6ICT088-M1Bfj-35" value="Load a subject" style="ellipse;whiteSpace=wrap;html=1;" vertex="1" parent="1">
          <mxGeometry x="1600" y="290" width="100" height="60" as="geometry" />
        </mxCell>
        <mxCell id="A8C6d5W6ICT088-M1Bfj-36" value="CRUD to schedules" style="ellipse;whiteSpace=wrap;html=1;" vertex="1" parent="1">
          <mxGeometry x="960" y="290" width="100" height="60" as="geometry" />
        </mxCell>
        <mxCell id="A8C6d5W6ICT088-M1Bfj-37" value="Show create subject form" style="ellipse;whiteSpace=wrap;html=1;" vertex="1" parent="1">
          <mxGeometry x="200" y="50" width="100" height="60" as="geometry" />
        </mxCell>
        <mxCell id="A8C6d5W6ICT088-M1Bfj-38" value="Show subject validation form" style="ellipse;whiteSpace=wrap;html=1;" vertex="1" parent="1">
          <mxGeometry x="310" y="50" width="100" height="60" as="geometry" />
        </mxCell>
        <mxCell id="A8C6d5W6ICT088-M1Bfj-39" value="Notify manager/teacher" style="ellipse;whiteSpace=wrap;html=1;" vertex="1" parent="1">
          <mxGeometry x="420" y="50" width="100" height="60" as="geometry" />
        </mxCell>
        <mxCell id="A8C6d5W6ICT088-M1Bfj-40" value="Data update on semester change" style="ellipse;whiteSpace=wrap;html=1;" vertex="1" parent="1">
          <mxGeometry x="1720" y="170" width="100" height="60" as="geometry" />
        </mxCell>
        <mxCell id="A8C6d5W6ICT088-M1Bfj-43" value="Display schedule" style="ellipse;whiteSpace=wrap;html=1;" vertex="1" parent="1">
          <mxGeometry x="1492.5" y="50" width="90" height="60" as="geometry" />
        </mxCell>
        <mxCell id="A8C6d5W6ICT088-M1Bfj-44" value="Display action bar" style="ellipse;whiteSpace=wrap;html=1;" vertex="1" parent="1">
          <mxGeometry x="1590" y="50" width="90" height="60" as="geometry" />
        </mxCell>
        <mxCell id="A8C6d5W6ICT088-M1Bfj-45" value="Handle basket CRUD" style="ellipse;whiteSpace=wrap;html=1;" vertex="1" parent="1">
          <mxGeometry x="1977" y="170" width="90" height="60" as="geometry" />
        </mxCell>
        <mxCell id="A8C6d5W6ICT088-M1Bfj-46" value="Basket CRUD" style="ellipse;whiteSpace=wrap;html=1;" vertex="1" parent="1">
          <mxGeometry x="1710" y="290" width="90" height="60" as="geometry" />
        </mxCell>
        <mxCell id="A8C6d5W6ICT088-M1Bfj-47" value="Display collision warnings" style="ellipse;whiteSpace=wrap;html=1;" vertex="1" parent="1">
          <mxGeometry x="1690" y="50" width="100" height="60" as="geometry" />
        </mxCell>
        <mxCell id="A8C6d5W6ICT088-M1Bfj-49" value="Collision validation" style="ellipse;whiteSpace=wrap;html=1;" vertex="1" parent="1">
          <mxGeometry x="1830" y="170" width="80" height="60" as="geometry" />
        </mxCell>
        <mxCell id="A8C6d5W6ICT088-M1Bfj-50" value="Display login form" style="ellipse;whiteSpace=wrap;html=1;" vertex="1" parent="1">
          <mxGeometry x="2130" y="50" width="90" height="60" as="geometry" />
        </mxCell>
        <mxCell id="A8C6d5W6ICT088-M1Bfj-54" value="CRUD to subject concept" style="ellipse;whiteSpace=wrap;html=1;" vertex="1" parent="1">
          <mxGeometry x="320" y="290" width="100" height="60" as="geometry" />
        </mxCell>
        <mxCell id="A8C6d5W6ICT088-M1Bfj-55" value="Handle subject CRUD&amp;nbsp;" style="ellipse;whiteSpace=wrap;html=1;" vertex="1" parent="1">
          <mxGeometry x="700" y="170" width="90" height="60" as="geometry" />
        </mxCell>
        <mxCell id="A8C6d5W6ICT088-M1Bfj-56" value="Handle subject CRUD&amp;nbsp;" style="ellipse;whiteSpace=wrap;html=1;" vertex="1" parent="1">
          <mxGeometry x="530" y="170" width="90" height="60" as="geometry" />
        </mxCell>
      </root>
    </mxGraphModel>
  </diagram>
</mxfile>
